#!OML:ASF F:\VICON\USERDATA\INSTALL\Justin_Nancy\Justin_Nancy.ASF
:FULLY-SPECIFIED
:DEGREES
239
root 3.81447 17.3853 1.28024 3.84167 -51.5923 -0.835833
lowerback 5.09855 1.85391 1.12921
upperback -0.144467 2.59812 2.3902
thorax -3.068 1.28782 1.62939
lowerneck -13.9909 -4.1222 -10.8366
upperneck 22.9498 -4.83528 6.20274
head 10.0316 -2.54676 3.37173
rclavicle -2.55438e-014 7.95139e-016
rhumerus -30.3869 -14.3617 -78.5051
rradius 29.4307
rwrist 8.73396
rhand -12.7327 14.0772
rfingers 7.12502
rthumb 13.3508 -15.4751
lclavicle -2.55438e-014 7.95139e-016
lhumerus -31.8249 16.9214 81.3921
lradius 26.1835
lwrist -9.84637
lhand -14.4085 26.8959
lfingers 7.12502
lthumb 11.7352 56.5471
rfemur 11.4909 7.67229 28.2547
rtibia 20.2484
rfoot -11.5303 2.99893
rtoes 5.72741
lfemur -27.4664 -6.78912 -17.4501
ltibia 22.7225
lfoot -3.5248 -2.67453
ltoes 1.72989
240
root 3.70955 17.4011 1.40328 3.12107 -51.8529 -0.106664
lowerback 5.0209 1.9268 0.658867
upperback -0.135407 2.66323 2.24408
thorax -3.03078 1.32764 1.73961
lowerneck -13.9776 -4.13958 -10.9511
upperneck 23.1537 -4.86558 6.27928
head 10.1105 -2.56713 3.41742
rclavicle 2.99171e-014 -7.15625e-015
rhumerus -30.6556 -15.2096 -78.144
rradius 28.646
rwrist 9.25788
rhand -12.989 13.8182
rfingers 7.12502
rthumb 13.1038 -15.7501
lclavicle 2.99171e-014 -7.15625e-015
lhumerus -31.9117 16.8818 81.376
lradius 25.9745
lwrist -9.60819
lhand -14.7047 26.9464
lfingers 7.12502
lthumb 11.4496 56.6138
rfemur 10.9067 7.69586 27.6082
rtibia 22.477
rfoot -10.7488 3.6381
rtoes 5.04537
lfemur -26.7838 -5.9423 -18.3963
ltibia 22.7535
lfoot -2.19267 -3.3425
ltoes 5.48258
241
root 3.60927 17.4158 1.53848 2.46443 -51.892 0.536834
lowerback 4.9184 1.98848 0.499917
upperback -0.190863 2.73183 2.05152
thorax -3.0301 1.3639 1.62733
lowerneck -13.7645 -4.15017 -11.0182
upperneck 23.335 -4.91975 6.34485
head 10.1437 -2.5995 3.44988
rclavicle -8.44338e-014 9.54166e-015
rhumerus -31.2017 -16.6657 -77.3661
rradius 27.8815
rwrist 10.3825
rhand -12.52 14.1048
rfingers 7.12502
rthumb 13.5558 -15.4339
lclavicle -8.44338e-014 9.54166e-015
lhumerus -31.9264 16.5881 81.3599
lradius 25.6779
lwrist -9.13326
lhand -14.2974 27.224
lfingers 7.12502
lthumb 11.8423 56.8692
rfemur 10.2364 7.31462 26.879
rtibia 24.8485
rfoot -9.86438 4.40814
rtoes 4.26442
lfemur -26.0765 -5.49613 -19.2453
ltibia 22.896
lfoot -1.70241 -3.5166
ltoes 6.19007
242
root 3.51651 17.4312 1.66404 2.5534 -51.7781 0.429751
lowerback 4.84435 1.92194 0.698124
upperback -0.235459 2.65236 1.98078
thorax -3.01992 1.32088 1.45136
lowerneck -13.8971 -4.13416 -10.7477
upperneck 23.4901 -4.92559 6.22043
head 10.214 -2.59277 3.35967
rclavicle -5.37216e-014 -3.97569e-015
rhumerus -31.594 -17.3572 -77.0923
rradius 27.4972
rwrist 10.7869
rhand -12.1356 14.3409
rfingers 7.12502
rthumb 13.9263 -15.1728
lclavicle -5.37216e-014 -3.97569e-015
lhumerus -31.8873 16.8065 81.1071
lradius 25.5077
lwrist -8.98522
lhand -13.9962 27.7673
lfingers 7.12502
lthumb 12.1328 57.3955
rfemur 9.20835 6.74511 26.5785
rtibia 27.2902
rfoot -8.55959 5.24606
rtoes 4.71748
lfemur -25.6832 -5.11623 -19.471
ltibia 23.1506
lfoot -1.66064 -3.7581
ltoes 6.15698
243
root 3.42978 17.4437 1.77028 2.76249 -51.6268 0.151994
lowerback 4.94984 1.64178 0.741073
upperback -0.110408 2.27902 1.94415
thorax -2.93868 1.13365 1.41636
lowerneck -14.7821 -3.96468 -10.0667
upperneck 23.6563 -4.68401 5.92135
head 10.3932 -2.43974 3.16418
rclavicle -3.15074e-014 -7.95139e-015
rhumerus -31.3628 -17.5856 -77.497
rradius 27.1055
rwrist 11.0429
rhand -12.0351 14.3159
rfingers 7.12502
rthumb 14.0232 -15.191
lclavicle -3.15074e-014 -7.95139e-015
lhumerus -31.6862 17.8698 80.4702
lradius 25.4697
lwrist -9.49624
lhand -14.2904 27.6828
lfingers 7.12502
lthumb 11.8491 57.3276
rfemur 8.00935 6.21508 26.4666
rtibia 29.7786
rfoot -6.71271 5.88316
rtoes 4.7829
lfemur -25.4032 -4.85458 -19.4354
ltibia 23.3829
lfoot -1.639 -4.21242
ltoes 8.59143
244
root 3.33717 17.4574 1.89225 2.68424 -51.6785 0.0675657
lowerback 5.06162 1.72435 0.762774
upperback -0.231107 2.40068 2.15133
thorax -3.13684 1.19499 1.60321
lowerneck -14.3965 -4.10457 -10.8721
upperneck 23.6595 -4.75428 6.04771
head 10.3556 -2.53769 3.33893
rclavicle 1.97294e-014 2.38542e-015
rhumerus -32.0623 -17.8146 -76.7055
rradius 26.8592
rwrist 10.9011
rhand -12.0435 14.3993
rfingers 7.12502
rthumb 14.0151 -15.1082
lclavicle 1.97294e-014 2.38542e-015
lhumerus -32.2107 18.2922 80.6876
lradius 25.3575
lwrist -10.5291
lhand -14.4115 26.8062
lfingers 7.12502
lthumb 11.7323 56.4576
rfemur 7.00051 5.76129 26.1463
rtibia 32.2949
rfoot -4.62907 6.63765
rtoes 4.21461
lfemur -24.7381 -4.2389 -19.6947
ltibia 23.5471
lfoot -2.2777 -5.46502
ltoes 6.28898
